<svg width="483" height="118" viewBox="0 0 483 118" fill="none" xmlns="http://www.w3.org/2000/svg">
<path d="M26.852 69.8699C21.8213 69.8699 17.3133 69.06 13.328 67.4405C9.34267 65.8209 6.14133 63.4238 3.724 60.2494C1.372 57.075 0.130667 53.2527 0 48.7826H17.836C18.0973 51.3092 18.9793 53.2527 20.482 54.6132C21.9847 55.9089 23.9447 56.5567 26.362 56.5567C28.8447 56.5567 30.8047 56.0061 32.242 54.9047C33.6793 53.7386 34.398 52.1513 34.398 50.1431C34.398 48.4586 33.81 47.0658 32.634 45.9645C31.5233 44.8631 30.1187 43.9562 28.42 43.2435C26.7867 42.5309 24.4347 41.7211 21.364 40.8141C16.9213 39.4536 13.2953 38.0932 10.486 36.7327C7.67667 35.3722 5.25933 33.364 3.234 30.7078C1.20867 28.0516 0.196 24.5856 0.196 20.3099C0.196 13.961 2.51533 9.00502 7.154 5.44188C11.7927 1.81396 17.836 0 25.284 0C32.8627 0 38.9713 1.81396 43.61 5.44188C48.2487 9.00502 50.7313 13.9934 51.058 20.4071H32.928C32.7973 18.2044 31.9807 16.4876 30.478 15.2567C28.9753 13.961 27.048 13.3132 24.696 13.3132C22.6707 13.3132 21.0373 13.8638 19.796 14.9652C18.5547 16.0017 17.934 17.5242 17.934 19.5325C17.934 21.7351 18.9793 23.452 21.07 24.6828C23.1607 25.9137 26.4273 27.2418 30.87 28.6671C35.3127 30.1571 38.906 31.5824 41.65 32.9428C44.4593 34.3033 46.8767 36.2793 48.902 38.8706C50.9273 41.4619 51.94 44.7984 51.94 48.8798C51.94 52.7668 50.9273 56.2976 48.902 59.472C46.942 62.6464 44.0673 65.173 40.278 67.0518C36.4887 68.9305 32.0133 69.8699 26.852 69.8699Z" fill="white"/>
<path d="M105.079 69.1897L81.9511 39.065V69.1897H65.1931V0.971802H81.9511V30.9022L104.883 0.971802H124.581L97.9251 34.4005L125.561 69.1897H105.079Z" fill="white"/>
<path d="M179.291 57.1398H153.615L149.499 69.1897H131.957L156.849 0.971802H176.253L201.145 69.1897H183.407L179.291 57.1398ZM174.979 44.3125L166.453 19.3382L158.025 44.3125H174.979Z" fill="white"/>
<path d="M228.419 56.3624H250.371V69.1897H211.661V0.971802H228.419V56.3624Z" fill="white"/>
<path d="M306.09 0.971802V14.285H278.062V28.6671H299.034V41.5916H278.062V69.1897H261.304V0.971802H306.09Z" fill="#F7982C"/>
<path d="M334.596 0.971802V69.1897H317.838V0.971802H334.596Z" fill="#F7982C"/>
<path d="M399.17 0.971802V14.285H380.942V69.1897H364.184V14.285H345.956V0.971802H399.17Z" fill="#F7982C"/>
<path d="M14.8601 104.911H8.57207L7.56407 107.862H3.26807L9.36407 91.1555H14.1161L20.2121 107.862H15.8681L14.8601 104.911ZM13.8041 101.77L11.7161 95.6533L9.65207 101.77H13.8041ZM34.6894 108.028C33.4574 108.028 32.3534 107.83 31.3774 107.434C30.4014 107.037 29.6174 106.45 29.0254 105.672C28.4494 104.895 28.1454 103.959 28.1134 102.864H32.4814C32.5454 103.483 32.7614 103.959 33.1294 104.292C33.4974 104.609 33.9774 104.768 34.5694 104.768C35.1774 104.768 35.6574 104.633 36.0094 104.364C36.3614 104.078 36.5374 103.689 36.5374 103.197C36.5374 102.785 36.3934 102.444 36.1054 102.174C35.8334 101.904 35.4894 101.682 35.0734 101.508C34.6734 101.333 34.0974 101.135 33.3454 100.913C32.2574 100.58 31.3694 100.246 30.6814 99.9132C29.9934 99.5801 29.4014 99.0882 28.9054 98.4377C28.4094 97.7873 28.1614 96.9385 28.1614 95.8913C28.1614 94.3365 28.7294 93.1228 29.8654 92.2502C31.0014 91.3617 32.4814 90.9175 34.3054 90.9175C36.1614 90.9175 37.6574 91.3617 38.7934 92.2502C39.9294 93.1228 40.5374 94.3444 40.6174 95.9151H36.1774C36.1454 95.3757 35.9454 94.9553 35.5774 94.6538C35.2094 94.3365 34.7374 94.1778 34.1614 94.1778C33.6654 94.1778 33.2654 94.3127 32.9614 94.5824C32.6574 94.8363 32.5054 95.2091 32.5054 95.7009C32.5054 96.2404 32.7614 96.6608 33.2734 96.9622C33.7854 97.2637 34.5854 97.5889 35.6734 97.938C36.7614 98.3029 37.6414 98.6519 38.3134 98.9851C39.0014 99.3183 39.5934 99.8022 40.0894 100.437C40.5854 101.071 40.8334 101.889 40.8334 102.888C40.8334 103.84 40.5854 104.705 40.0894 105.482C39.6094 106.259 38.9054 106.878 37.9774 107.338C37.0494 107.798 35.9534 108.028 34.6894 108.028ZM48.111 91.1555V101.151C48.111 102.15 48.359 102.92 48.855 103.459C49.351 103.999 50.079 104.268 51.039 104.268C51.999 104.268 52.735 103.999 53.247 103.459C53.759 102.92 54.015 102.15 54.015 101.151V91.1555H58.119V101.127C58.119 102.618 57.799 103.88 57.159 104.911C56.519 105.942 55.655 106.72 54.567 107.243C53.495 107.767 52.295 108.028 50.967 108.028C49.639 108.028 48.447 107.775 47.391 107.267C46.351 106.743 45.527 105.966 44.919 104.935C44.311 103.888 44.007 102.618 44.007 101.127V91.1555H48.111ZM72.2089 104.911H65.9209L64.9129 107.862H60.6169L66.7129 91.1555H71.4649L77.5609 107.862H73.2169L72.2089 104.911ZM71.1529 101.77L69.0649 95.6533L67.0009 101.77H71.1529ZM96.4301 104.911H90.1421L89.1341 107.862H84.8381L90.9341 91.1555H95.6861L101.782 107.862H97.4381L96.4301 104.911ZM95.3741 101.77L93.2861 95.6533L91.2221 101.77H95.3741ZM103.661 99.4849C103.661 97.8349 104.021 96.3673 104.741 95.0822C105.461 93.7812 106.461 92.7737 107.741 92.0598C109.037 91.33 110.501 90.9651 112.133 90.9651C114.133 90.9651 115.845 91.4886 117.269 92.5358C118.693 93.5829 119.645 95.0108 120.125 96.8195H115.613C115.277 96.1214 114.797 95.5899 114.173 95.225C113.565 94.8601 112.869 94.6776 112.085 94.6776C110.821 94.6776 109.797 95.1139 109.013 95.9865C108.229 96.8591 107.837 98.0252 107.837 99.4849C107.837 100.945 108.229 102.111 109.013 102.983C109.797 103.856 110.821 104.292 112.085 104.292C112.869 104.292 113.565 104.11 114.173 103.745C114.797 103.38 115.277 102.848 115.613 102.15H120.125C119.645 103.959 118.693 105.387 117.269 106.434C115.845 107.465 114.133 107.981 112.133 107.981C110.501 107.981 109.037 107.624 107.741 106.91C106.461 106.18 105.461 105.173 104.741 103.888C104.021 102.602 103.661 101.135 103.661 99.4849ZM133.847 104.911H127.559L126.551 107.862H122.255L128.351 91.1555H133.103L139.199 107.862H134.855L133.847 104.911ZM132.791 101.77L130.703 95.6533L128.639 101.77H132.791ZM148.086 91.1555C149.862 91.1555 151.414 91.5045 152.742 92.2026C154.07 92.9007 155.094 93.8843 155.814 95.1536C156.55 96.407 156.918 97.8587 156.918 99.5087C156.918 101.143 156.55 102.595 155.814 103.864C155.094 105.133 154.062 106.117 152.718 106.815C151.39 107.513 149.846 107.862 148.086 107.862H141.774V91.1555H148.086ZM147.822 104.34C149.374 104.34 150.582 103.919 151.446 103.078C152.31 102.238 152.742 101.048 152.742 99.5087C152.742 97.9697 152.31 96.7719 151.446 95.9151C150.582 95.0584 149.374 94.63 147.822 94.63H145.878V104.34H147.822ZM164.035 94.4158V97.7952H169.531V100.937H164.035V104.602H170.251V107.862H159.931V91.1555H170.251V94.4158H164.035ZM192.716 91.1555V107.862H188.612V97.8428L184.844 107.862H181.532L177.74 97.819V107.862H173.636V91.1555H178.484L183.212 102.721L187.892 91.1555H192.716ZM200.491 91.1555V107.862H196.387V91.1555H200.491ZM214.673 104.911H208.385L207.377 107.862H203.081L209.177 91.1555H213.929L220.025 107.862H215.681L214.673 104.911ZM213.617 101.77L211.529 95.6533L209.465 101.77H213.617Z" fill="#A5A5A5"/>
<path d="M424.553 54.9694L446.942 10.5291C447.995 8.43884 450.955 8.31316 452.185 10.3065L479.592 54.7468C480.815 56.7291 479.376 59.2737 477.033 59.2737H427.236C425.007 59.2737 423.556 56.9473 424.553 54.9694Z" fill="#F7982C" stroke="#F7982C"/>
</svg>
